<svg width="120" height="69" viewBox="0 0 120 69" fill="none" xmlns="http://www.w3.org/2000/svg">
<path d="M109.983 29.9332C109.944 29.9332 109.906 29.9448 109.867 29.9448C110.602 28.2474 111.014 26.3717 111.014 24.3983C111.014 16.6654 104.747 10.3939 97.0161 10.3939C94.2843 10.3939 91.7429 11.1879 89.5885 12.5458C86.6744 5.45734 79.7114 0.463196 71.5776 0.463196C60.8212 0.463196 52.1013 9.1857 52.1013 19.9507C52.1013 20.762 52.1669 21.556 52.2635 22.3442C52.2089 22.3442 52.156 22.3385 52.1013 22.3385C44.8894 22.3385 39.0427 28.1841 39.0427 35.3992C39.0427 42.6142 44.8894 48.4656 52.1013 48.4656H109.983C115.098 48.4656 119.244 44.3173 119.244 39.2023C119.244 34.0816 115.098 29.9332 109.983 29.9332Z" fill="#F3F3F3"/>
<path d="M85.8497 45.934C85.8014 45.934 85.7571 45.9455 85.7088 45.9455C86.5956 43.8915 87.0931 41.6303 87.0931 39.2541C87.0931 29.9274 79.5366 22.3729 70.2157 22.3729C66.9215 22.3729 63.8578 23.328 61.26 24.9621C57.7461 16.4179 49.3517 10.3939 39.5437 10.3939C26.5748 10.3939 16.0611 20.9173 16.0611 33.8917C16.0611 34.8698 16.1405 35.8307 16.2572 36.78C16.1911 36.78 16.1272 36.7685 16.0611 36.7685C7.36594 36.7685 0.316711 43.8224 0.316711 52.5213C0.316711 61.2202 7.36594 68.2724 16.0611 68.2724H85.8497C92.0166 68.2724 97.0161 63.2714 97.0161 57.1018C97.0161 50.9328 92.0166 45.934 85.8497 45.934Z" fill="white"/>
</svg>
